<svg width="398" height="136" viewBox="0 0 398 136" fill="none" xmlns="http://www.w3.org/2000/svg">
<path d="M128.694 66.7594L122.007 55.1069V66.7594H117.785V45.4922H122.042L129.011 57.4608V45.4922H133.232V66.7594H128.691H128.694Z" fill="#BD4F19"/>
<path d="M149.846 66.7594L148.615 62.2694H143.581L142.349 66.7594H137.848L143.933 45.4922H149.212L155.262 66.7594H149.846ZM146.077 51.7037H146.011L144.424 58.4774H147.768L146.077 51.7037Z" fill="#BD4F19"/>
<path d="M166.728 49.3551V66.7623H161.48V49.3551H156.625V45.4951H171.584V49.3551H166.728Z" fill="#BD4F19"/>
<path d="M183.812 67.0785C179.484 67.0785 176.359 65.3242 176.359 59.9887V45.4951H181.595V59.9887C181.595 62.6564 182.302 62.9703 183.812 62.9703C185.321 62.9703 186.03 62.6541 186.03 59.9887V45.4951H191.271V59.9887C191.271 65.3242 188.141 67.0785 183.812 67.0785Z" fill="#BD4F19"/>
<path d="M207.218 66.7594L203.731 58.1986H202.33V66.7594H197.082V45.4922H204.086C207.678 45.4922 212.041 46.5415 212.041 51.3875V51.774C212.041 54.5823 210.735 56.3366 208.8 57.2828L213.057 66.7594H207.218ZM206.76 51.2821C206.76 49.844 205.739 49.3521 203.98 49.3521H202.327V54.2989H203.91C205.668 54.2989 206.76 53.6688 206.76 51.9145V51.2821Z" fill="#BD4F19"/>
<path d="M229.084 66.7594L227.853 62.2694H222.822L221.592 66.7594H217.086L223.176 45.4922H228.45L234.503 66.7594H229.081H229.084ZM225.322 51.7037H225.247L223.667 58.4774H227.008L225.32 51.7037H225.322Z" fill="#BD4F19"/>
<path d="M239.125 66.7594V45.4922H244.363V62.8994H252.036V66.7594H239.125Z" fill="#BD4F19"/>
<path d="M275.103 66.7594V57.4608H270.109V66.7594H264.871V45.4922H270.109V53.5986H275.103V45.4922H280.353V66.7594H275.103Z" fill="#BD4F19"/>
<path d="M285.328 66.7594V62.8994H289.094V49.3521H285.328V45.4922H298.066V49.3521H294.337V62.8994H298.066V66.7594H285.328Z" fill="#BD4F19"/>
<path d="M309.707 67.0783C307.347 67.0783 304.671 66.3054 302.633 65.078L303.823 61.286C305.38 62.2346 307.594 63.0778 309.773 63.0778C311.569 63.0778 312.802 62.4829 312.802 60.8996V60.7262C312.802 58.8665 310.691 57.9507 308.399 57.2176C305.795 56.3744 303.053 55.1448 303.053 51.3551V50.7227C303.053 46.0547 306.608 45.1436 310.442 45.1436C312.097 45.1436 314.804 45.5979 316.709 46.2655L316.039 50.1629C314.349 49.5984 312.346 49.144 310.515 49.144C308.754 49.144 307.909 49.4626 307.909 50.6548V50.9335C307.909 51.8844 309.388 52.5496 311.186 53.1469C314.067 54.0931 317.76 55.4258 317.76 60.3046V60.7988C317.76 65.2186 314.283 67.0783 309.709 67.0783H309.707Z" fill="#BD4F19"/>
<path d="M331.837 49.3551V66.7623H326.591V49.3551H321.738V45.4951H336.69V49.3551H331.837Z" fill="#BD4F19"/>
<path d="M348.863 67.0783C344.568 67.0783 341.258 65.3591 341.258 59.9884V52.2311C341.258 46.858 344.568 45.1436 348.863 45.1436C353.157 45.1436 356.496 46.8604 356.496 52.2311V59.9884C356.496 65.3568 353.155 67.0783 348.863 67.0783ZM351.255 52.2311C351.255 49.6687 350.375 49.2494 348.863 49.2494C347.351 49.2494 346.505 49.6687 346.505 52.2311V59.9884C346.505 62.5508 347.351 62.9701 348.863 62.9701C350.375 62.9701 351.255 62.5508 351.255 59.9884V52.2311Z" fill="#BD4F19"/>
<path d="M372.27 66.7594L368.788 58.1986H367.382V66.7594H362.137V45.4922H369.143C372.728 45.4922 377.091 46.5415 377.091 51.3875V51.774C377.091 54.5823 375.795 56.3366 373.858 57.2828L378.11 66.7594H372.27ZM371.812 51.2821C371.812 49.844 370.791 49.3521 369.028 49.3521H367.38V54.2989H368.962C370.723 54.2989 371.812 53.6688 371.812 51.9145V51.2821Z" fill="#BD4F19"/>
<path d="M391.849 57.1476V66.76H386.604V57.1476L380.445 45.4951H386.322L389.806 52.9714H389.877L393.359 45.4951H398.001L391.847 57.1476H391.849Z" fill="#BD4F19"/>
<path d="M133.304 98.874V82.6941L127.652 98.874H125.535L120.085 83.0993V98.874H117.895V78.7334H121.189L126.878 95.0117L132.628 78.7334H135.863V98.874H133.306H133.304Z" fill="#BD4F19"/>
<path d="M151.551 99.2085C148.015 99.2085 145.16 97.9695 145.16 92.7628V78.7354H147.715V92.7628C147.715 95.5852 148.454 97.0256 151.551 97.0256C154.648 97.0256 155.385 95.5852 155.385 92.7628V78.7354H157.942V92.7628C157.942 97.9695 155.082 99.2085 151.551 99.2085Z" fill="#BD4F19"/>
<path d="M172.315 99.2089C170.432 99.2089 168.208 98.5742 166.562 97.5998L167.201 95.6534C168.544 96.4873 170.46 97.129 172.383 97.129C174.935 97.129 176.757 96.4217 176.757 93.9413V93.4026C176.757 90.6154 174.602 89.8096 172.111 89.0367C169.349 88.1959 166.795 87.3246 166.795 83.7691V83.2304C166.795 79.0332 169.619 78.3984 173.087 78.3984C174.4 78.3984 176.522 78.8341 178.002 79.4688L177.659 81.4878C176.288 80.9491 174.67 80.4783 173.155 80.4783C170.901 80.4783 169.288 80.7149 169.288 83.1625V83.7012C169.288 85.3759 170.772 86.0176 172.885 86.6524C175.919 87.5635 179.349 88.5987 179.349 93.2667V93.8054C179.349 97.8317 176.389 99.2066 172.315 99.2066V99.2089Z" fill="#BD4F19"/>
<path d="M188.202 98.874V78.7334H198.835V80.6845H190.756V87.3246H197.389V89.278H190.756V96.9276H199.204V98.874H188.199H188.202Z" fill="#BD4F19"/>
<path d="M214.006 99.2085C210.477 99.2085 207.617 97.9695 207.617 92.7628V78.7354H210.174V92.7628C210.174 95.5852 210.916 97.0256 214.006 97.0256C217.096 97.0256 217.847 95.5852 217.847 92.7628V78.7354H220.404V92.7628C220.404 97.9695 217.544 99.2085 214.004 99.2085H214.006Z" fill="#BD4F19"/>
<path d="M245.083 98.874V82.6941L239.429 98.874H237.314L231.859 83.0993V98.874H229.676V78.7334H232.972L238.654 95.0117L244.409 78.7334H247.637V98.874H245.083Z" fill="#BD4F19"/>
<path d="M275.237 99.2085C271.701 99.2085 268.672 97.9695 268.672 92.7628V84.8461C268.672 79.6418 271.698 78.4004 275.237 78.4004C278.775 78.4004 281.794 79.6394 281.794 84.8461V92.7628C281.794 97.9695 278.77 99.2085 275.237 99.2085ZM279.242 84.8461C279.242 82.0238 278.23 80.5833 275.237 80.5833C272.243 80.5833 271.236 82.0238 271.236 84.8461V92.7628C271.236 95.5851 272.243 97.0256 275.237 97.0256C278.23 97.0256 279.242 95.5851 279.242 92.7628V84.8461Z" fill="#BD4F19"/>
<path d="M293.48 80.6864V87.3266H300.111V89.2799H293.48V98.876H290.926V78.7354H301.557V80.6864H293.48Z" fill="#BD4F19"/>
<path d="M327.639 99.2085C324.107 99.2085 321.25 97.9695 321.25 92.7628V78.7354H323.802V92.7628C323.802 95.5852 324.542 97.0256 327.639 97.0256C330.736 97.0256 331.475 95.5852 331.475 92.7628V78.7354H334.032V92.7628C334.032 97.9695 331.172 99.2085 327.639 99.2085Z" fill="#BD4F19"/>
<path d="M350.083 80.6864V98.876H347.526V80.6864H342.41V78.7354H355.195V80.6864H350.083Z" fill="#BD4F19"/>
<path d="M372.04 98.874L370.76 94.11H363.895L362.583 98.874H360.059L365.881 78.7334H369.011L374.799 98.874H372.038H372.04ZM367.433 81.7572H367.297L364.402 92.2596H370.26L367.433 81.7572Z" fill="#BD4F19"/>
<path d="M393.901 98.874V89.1398H385.592V98.874H383.035V78.7334H385.592V87.1981H393.901V78.7334H396.453V98.874H393.901Z" fill="#BD4F19"/>
<path d="M57.3459 98.883L38.957 57.4893L86.9226 98.883H57.3459Z" fill="#BD4F19"/>
<path d="M0 85.3478V16.3184L32.7793 55.3582L0 85.3478Z" fill="#BD4F19"/>
<path opacity="0.66" d="M46.7658 98.8834H0L35.5709 58.3516L46.7658 98.8834Z" fill="#BD4F19"/>
<path opacity="0.33" d="M0.535156 15.3742L33.8615 50.0037L32.232 0L0.535156 15.3742Z" fill="#BD4F19"/>
<path d="M33.5898 0.850586L48.802 20.4946L37.701 49.4279L33.5898 0.850586Z" fill="#BD4F19"/>
<path opacity="0.66" d="M40.4883 54.0464L50.2415 21.6162L99.1181 98.8831L40.4883 54.0464Z" fill="#BD4F19"/>
<path opacity="0.33" d="M51.332 20.0849L71.024 10.4912L99.1192 87.1L51.332 20.0849Z" fill="#BD4F19"/>
<path d="M72.3906 10.9521L99.117 72.6294V45.3755L72.3906 10.9521Z" fill="#BD4F19"/>
<path d="M124.07 131.482L121.795 125.233H119.684V131.482H117.973V117.438H121.539C123.535 117.438 125.716 118.022 125.716 121.043V121.254C125.716 123.477 124.777 124.507 123.582 124.929L126.021 131.482H124.073H124.07ZM123.979 120.949C123.979 119.286 123.086 118.795 121.49 118.795H119.682V123.875H121.417C123.201 123.875 123.976 123.102 123.976 121.348V120.949H123.979Z" fill="#BD4F19"/>
<path d="M128.676 119.124V116.665H130.411V119.124H128.676ZM128.744 131.482V121.534H130.34V131.482H128.744Z" fill="#BD4F19"/>
<path d="M140.087 127.597C140.087 130.991 138.516 131.719 136.685 131.719C134.877 131.719 133.309 130.991 133.309 127.597V125.421C133.309 122.027 134.879 121.299 136.685 121.299C138.516 121.299 140.087 122.027 140.087 125.421V127.597ZM138.49 125.421C138.49 123.711 138.185 122.636 136.683 122.636C135.206 122.636 134.898 123.711 134.898 125.421V127.574C134.898 129.281 135.206 130.358 136.683 130.358C138.185 130.358 138.49 129.281 138.49 127.574V125.421Z" fill="#BD4F19"/>
<path d="M150.349 131.482V118.795H147.367V117.438H155.087V118.795H152.084V131.482H150.349Z" fill="#BD4F19"/>
<path d="M156.969 119.124V116.665H158.704V119.124H156.969ZM157.037 131.482V121.534H158.633V131.482H157.037Z" fill="#BD4F19"/>
<path d="M167.083 131.483V125.046C167.083 123.501 166.755 122.657 165.56 122.657C164.761 122.657 163.963 123.1 163.47 123.803V131.48H161.873V123.756L161.5 121.533H162.977L163.141 122.447C163.799 121.767 164.759 121.299 165.886 121.299C167.459 121.299 168.678 122.027 168.678 125.023V131.483H167.081H167.083Z" fill="#BD4F19"/>
<path d="M176.404 131.274C175.582 131.461 174.88 131.579 173.964 131.579C172.556 131.579 171.947 130.853 171.947 129.122V122.894H170.773V121.538H171.947V118.94L173.544 118.401V121.54H176.033V122.896H173.544V129.077C173.544 129.85 173.779 130.178 174.46 130.178C174.903 130.178 175.446 130.131 176.195 129.991L176.406 131.279L176.404 131.274Z" fill="#BD4F19"/>
<path d="M185.091 127.597C185.091 130.991 183.52 131.719 181.689 131.719C179.881 131.719 178.312 130.991 178.312 127.597V125.421C178.312 122.027 179.883 121.299 181.689 121.299C183.52 121.299 185.091 122.027 185.091 125.421V127.597ZM183.494 125.421C183.494 123.711 183.189 122.636 181.686 122.636C180.21 122.636 179.902 123.711 179.902 125.421V127.574C179.902 129.281 180.21 130.358 181.686 130.358C183.189 130.358 183.494 129.281 183.494 127.574V125.421Z" fill="#BD4F19"/>
<path d="M200.755 130.361C200.309 130.782 198.9 131.719 197.115 131.719C195.169 131.719 193.246 130.829 193.246 126.988V121.697C193.246 118.069 194.981 117.202 197.115 117.202C198.477 117.202 199.907 117.811 200.588 118.186L200.165 119.568C199.367 119.193 198.149 118.701 197.233 118.701C195.448 118.701 194.979 119.732 194.979 121.746V126.988C194.979 128.815 195.495 130.194 197.35 130.194C198.381 130.194 199.461 129.679 200.4 128.955L200.752 130.361H200.755Z" fill="#BD4F19"/>
<path d="M209.205 131.274C208.171 131.579 206.951 131.719 206.152 131.719C204.274 131.719 202.68 130.991 202.68 127.597V125.421C202.68 122.027 204.25 121.299 206.056 121.299C207.887 121.299 209.364 122.027 209.364 125.421V126.965H204.272V127.62C204.272 129.375 204.697 130.358 206.291 130.358C207.228 130.358 208.287 130.195 209.129 129.984L209.2 131.272L209.205 131.274ZM207.819 125.423C207.819 123.714 207.538 122.639 206.058 122.639C204.605 122.639 204.274 123.714 204.274 125.423V125.751H207.819V125.423Z" fill="#BD4F19"/>
<path d="M217.374 131.483V125.046C217.374 123.501 217.048 122.657 215.853 122.657C215.054 122.657 214.256 123.1 213.761 123.803V131.48H212.166V123.756L211.793 121.533H213.27L213.434 122.447C214.089 121.767 215.052 121.299 216.177 121.299C217.75 121.299 218.968 122.027 218.968 125.023V131.483H217.372H217.374Z" fill="#BD4F19"/>
<path d="M226.697 131.274C225.875 131.461 225.175 131.579 224.257 131.579C222.848 131.579 222.24 130.853 222.24 129.122V122.894H221.066V121.538H222.24V118.94L223.837 118.401V121.54H226.328V122.896H223.837V129.077C223.837 129.85 224.072 130.178 224.755 130.178C225.199 130.178 225.741 130.131 226.488 129.991L226.699 131.279L226.697 131.274Z" fill="#BD4F19"/>
<path d="M235.128 131.274C234.097 131.579 232.876 131.719 232.078 131.719C230.197 131.719 228.605 130.991 228.605 127.597V125.421C228.605 122.027 230.174 121.299 231.982 121.299C233.816 121.299 235.292 122.027 235.292 125.421V126.965H230.197V127.62C230.197 129.375 230.625 130.358 232.219 130.358C233.153 130.358 234.215 130.195 235.058 129.984L235.126 131.272L235.128 131.274ZM233.743 125.423C233.743 123.714 233.463 122.639 231.982 122.639C230.528 122.639 230.197 123.714 230.197 125.423V125.751H233.743V125.423Z" fill="#BD4F19"/>
<path d="M238.087 131.483V123.782L237.711 121.535H239.188L239.376 122.704C239.848 121.978 240.597 121.299 241.632 121.299C242.59 121.299 243.416 121.814 243.599 123.196L242.078 123.477C242.01 122.915 241.747 122.636 241.303 122.636C240.625 122.636 239.873 123.664 239.686 124.578V131.483H238.089H238.087Z" fill="#BD4F19"/>
<path d="M264.121 117.438H265.858V127.224C265.858 130.852 264.121 131.719 261.989 131.719C259.857 131.719 258.141 130.852 258.141 127.224V117.438H259.852V127.224C259.852 129.189 260.319 130.196 261.989 130.196C263.658 130.196 264.121 129.189 264.121 127.224V117.438Z" fill="#BD4F19"/>
<path d="M274.311 131.483V125.046C274.311 123.501 273.985 122.657 272.79 122.657C271.992 122.657 271.193 123.1 270.698 123.803V131.48H269.101V123.756L268.73 121.533H270.207L270.372 122.447C271.027 121.767 271.989 121.299 273.114 121.299C274.687 121.299 275.906 122.027 275.906 125.023V131.483H274.309H274.311Z" fill="#BD4F19"/>
<path d="M278.965 119.124V116.665H280.698V119.124H278.965ZM279.033 131.482V121.534H280.63V131.482H279.033Z" fill="#BD4F19"/>
<path d="M285.371 131.483L282.605 121.535H284.294L286.17 129.002H286.219L288.095 121.535H289.691L286.921 131.483H285.371Z" fill="#BD4F19"/>
<path d="M297.91 131.274C296.875 131.579 295.654 131.719 294.855 131.719C292.979 131.719 291.383 130.991 291.383 127.597V125.421C291.383 122.027 292.956 121.299 294.761 121.299C296.591 121.299 298.067 122.027 298.067 125.421V126.965H292.977V127.62C292.977 129.375 293.4 130.358 294.994 130.358C295.933 130.358 296.99 130.195 297.833 129.984L297.905 131.272L297.91 131.274ZM296.525 125.423C296.525 123.714 296.241 122.639 294.764 122.639C293.31 122.639 292.979 123.714 292.979 125.423V125.751H296.525V125.423Z" fill="#BD4F19"/>
<path d="M300.867 131.483V123.782L300.496 121.535H301.973L302.161 122.704C302.628 121.978 303.382 121.299 304.412 121.299C305.375 121.299 306.197 121.814 306.385 123.196L304.859 123.477C304.79 122.915 304.532 122.636 304.088 122.636C303.405 122.636 302.654 123.664 302.466 124.578V131.483H300.869H300.867Z" fill="#BD4F19"/>
<path d="M314.158 128.817C314.158 131.181 312.728 131.719 311.064 131.719C310.028 131.719 308.88 131.368 308.152 130.853L308.387 129.541C309.209 130.101 310.216 130.431 310.946 130.431C311.836 130.431 312.611 130.22 312.611 128.955V128.815C312.611 127.691 312.048 127.316 311.038 126.941L310.524 126.754C309.35 126.309 308.296 125.819 308.296 124.039V123.852C308.296 121.908 309.516 121.299 311.158 121.299C311.979 121.299 312.872 121.51 313.693 121.861L313.482 123.1C312.731 122.772 311.932 122.54 311.181 122.54C310.451 122.54 309.819 122.728 309.819 123.686V123.828C309.819 124.81 310.618 125.161 311.489 125.512L312.076 125.726C313.221 126.192 314.163 126.988 314.163 128.651V128.815L314.158 128.817Z" fill="#BD4F19"/>
<path d="M316.742 119.124V116.665H318.475V119.124H316.742ZM316.81 131.482V121.534H318.407V131.482H316.81Z" fill="#BD4F19"/>
<path d="M326.365 131.274C325.543 131.461 324.843 131.579 323.925 131.579C322.516 131.579 321.908 130.853 321.908 129.122V122.894H320.734V121.538H321.908V118.94L323.505 118.401V121.54H325.996V122.896H323.505V129.077C323.505 129.85 323.74 130.178 324.423 130.178C324.867 130.178 325.409 130.131 326.156 129.991L326.367 131.279L326.365 131.274Z" fill="#BD4F19"/>
<path d="M330.194 131.438L327.402 121.535H329.116L330.968 128.862H331.036C331.67 126.473 332.279 123.924 332.894 121.535H334.511L331.696 131.483L330.898 134.246C330.546 135.417 329.792 135.933 328.665 135.933C328.031 135.933 327.285 135.769 326.766 135.488L327.022 134.249C327.444 134.413 327.984 134.598 328.527 134.598C329.09 134.598 329.369 134.27 329.557 133.64L330.191 131.44L330.194 131.438Z" fill="#BD4F19"/>
<path d="M348.246 127.597C348.246 130.991 346.673 131.719 344.843 131.719C343.036 131.719 341.465 130.991 341.465 127.597V125.421C341.465 122.027 343.038 121.299 344.843 121.299C346.673 121.299 348.246 122.027 348.246 125.421V127.597ZM346.649 125.421C346.649 123.711 346.341 122.636 344.841 122.636C343.364 122.636 343.057 123.711 343.057 125.421V127.574C343.057 129.281 343.364 130.358 344.841 130.358C346.341 130.358 346.649 129.281 346.649 127.574V125.421Z" fill="#BD4F19"/>
<path d="M351.466 131.482V122.891H350.195V121.535H351.416C351.416 121.535 351.301 119.731 351.301 119.125C351.301 117.087 352.24 116.434 353.576 116.434C354.351 116.434 355.034 116.574 355.781 116.806L355.593 118.094C355.149 117.954 354.447 117.79 353.882 117.79C353.151 117.79 352.895 118.118 352.895 119.078C352.895 119.827 353.01 121.537 353.01 121.537H355.431V122.893H353.06V131.485H351.463L351.466 131.482Z" fill="#BD4F19"/>
<path d="M368.836 117.438H370.574V127.224C370.574 130.852 368.836 131.719 366.7 131.719C364.563 131.719 362.852 130.852 362.852 127.224V117.438H364.566V127.224C364.566 129.189 365.033 130.196 366.697 130.196C368.362 130.196 368.834 129.189 368.834 127.224V117.438H368.836Z" fill="#BD4F19"/>
<path d="M378.443 131.274C377.621 131.461 376.917 131.579 376.003 131.579C374.595 131.579 373.986 130.853 373.986 129.122V122.894H372.812V121.538H373.986V118.94L375.583 118.401V121.54H378.069V122.896H375.583V129.077C375.583 129.85 375.818 130.178 376.496 130.178C376.94 130.178 377.482 130.131 378.234 129.991L378.445 131.279L378.443 131.274Z" fill="#BD4F19"/>
<path d="M385.507 131.482L385.296 130.405C384.685 131.295 383.678 131.719 382.645 131.719C381.38 131.719 380.133 130.876 380.133 128.58C380.133 126.098 381.239 125.28 383.375 125.28H385.04V124.414C385.04 123.057 384.664 122.589 383.352 122.589C382.622 122.589 381.706 122.776 381.283 122.893L381.095 121.631C381.826 121.418 382.765 121.301 383.655 121.301C385.484 121.301 386.637 122.144 386.637 124.439V129.239L387.059 131.485H385.51L385.507 131.482ZM385.04 126.402H383.399C381.969 126.402 381.758 127.269 381.758 128.487C381.758 129.587 381.945 130.36 383.07 130.36C383.936 130.36 384.688 129.541 385.042 128.697V126.404L385.04 126.402Z" fill="#BD4F19"/>
<path d="M395.042 131.482V125.046C395.042 123.5 394.711 122.657 393.516 122.657C392.718 122.657 391.919 123.125 391.429 123.802V131.48H389.832V116.64H391.429V122.186C392.107 121.626 392.929 121.296 393.868 121.296C395.441 121.296 396.639 122.024 396.639 125.02V131.48H395.042V131.482Z" fill="#BD4F19"/>
<path d="M250.229 117.436H249.598V135.998H250.229V117.436Z" fill="#BD4F19"/>
</svg>